<svg id="e0INA2WZhnm1" xmlns="http://www.w3.org/2000/svg" xmlns:xlink="http://www.w3.org/1999/xlink" viewBox="0 0 32 32" shape-rendering="geometricPrecision" text-rendering="geometricPrecision" project-id="9de26ea72b2a41609e9ed725718f98c5" export-id="f46307432c46467092ebe25d8c9fbedd" cached="false"><g transform="matrix(.45 0 0 0.46-6.499999-7.009443)"><path d="M82.87,51.5l-8.29-4.28c-.191364-1.531332-.526168-3.0413-1-4.51l5.61-7.44c.222095-.508538.115483-1.100826-.27-1.5L72.71,26c-.304897-.461104-.857039-.693793-1.4-.59l-8.5,3.81c-1.32439-.795617-2.720509-1.465218-4.17-2l-2.32-9c-.24565-.497122-.766742-.797144-1.32-.76h-10c-.553383-.050967-1.082733.23741-1.34.73l-2.32,9c-1.449491.534782-2.84561,1.204383-4.17,2l-8.5-3.81c-.542961-.103793-1.095103.128896-1.4.59l-6.17,7.8c-.385483.399174-.492095.991462-.27,1.5l5.61,7.44c-.473832,1.4687-.808636,2.978668-1,4.51L17.13,51.5c-.434681.366484-.597828.963363-.41,1.5l2.21,9.68c.14.62.59,1.13,1,1.14l9.32.26c.846145,1.289916,1.810288,2.498442,2.88,3.61l-1.82,9.15c-.08.41.32,1,.89,1.24l8.95,4.31c.47424.286045,1.074057.258422,1.52-.07l6-7.12c.76.07,1.53.11,2.31.11s1.55,0,2.31-.11l6,7.12c.445943.328422,1.04576.356045,1.52.07L68.79,78c.57-.27,1-.83.89-1.24l-1.82-9.15c1.069712-1.111558,2.033855-2.320084,2.88-3.61l9.32-.26c.42,0,.87-.53,1-1.14L83.28,53c.187828-.536637.024681-1.133516-.41-1.5ZM50,65.43c-8.284271,0-15-6.715729-15-15s6.715729-15,15-15s15,6.715729,15,15-6.715729,15-15,15Z" transform="translate(0-.000011)" fill="none" stroke="#000" stroke-width="5"/></g></svg>
