<?xml version="1.0" encoding="UTF-8"?>
<svg version="1.1" xmlns="http://www.w3.org/2000/svg" width="200" height="200">
<path d="M0 0 C66 0 132 0 200 0 C200 66 200 132 200 200 C134 200 68 200 0 200 C0 134 0 68 0 0 Z " fill="#FDFEFE" transform="translate(0,0)"/>
<path d="M0 0 C7.92 0 15.84 0 24 0 C24 7.59 24 15.18 24 23 C17.07 23 10.14 23 3 23 C1.28632943 26.42734115 0.74642947 27.57855174 0.5859375 31.109375 C0.54726562 31.86347656 0.50859375 32.61757813 0.46875 33.39453125 C0.42234375 34.56048828 0.42234375 34.56048828 0.375 35.75 C0.33632812 36.54277344 0.29765625 37.33554687 0.2578125 38.15234375 C0.163892 40.10119416 0.08087178 42.05056451 0 44 C0.99 44.33 1.98 44.66 3 45 C3 45.66 3 46.32 3 47 C9.6 47 16.2 47 23 47 C23 54.59 23 62.18 23 70 C13.125 70.375 13.125 70.375 10.01611328 70.47802734 C8.80544189 70.53144287 8.80544189 70.53144287 7.5703125 70.5859375 C6.74289551 70.6173584 5.91547852 70.6487793 5.06298828 70.68115234 C2.78013915 70.82599137 2.78013915 70.82599137 1 73 C0.80143028 75.87342061 0.72171054 78.62861988 0.75 81.5 C0.74226563 82.28503906 0.73453125 83.07007812 0.7265625 83.87890625 C0.55580103 88.41532251 0.55580103 88.41532251 3 92 C5.12860662 92.36952049 5.12860662 92.36952049 7.5703125 92.4140625 C8.37742676 92.44967285 9.18454102 92.4852832 10.01611328 92.52197266 C11.55501221 92.57297119 11.55501221 92.57297119 13.125 92.625 C16.38375 92.74875 19.6425 92.8725 23 93 C23 100.59 23 108.18 23 116 C15.41 116 7.82 116 0 116 C-0.375 106.125 -0.375 106.125 -0.47802734 103.01611328 C-0.5136377 102.20899902 -0.54924805 101.40188477 -0.5859375 100.5703125 C-0.6173584 99.74289551 -0.6487793 98.91547852 -0.68115234 98.06298828 C-0.82599137 95.78013915 -0.82599137 95.78013915 -3 94 C-5.12860662 93.63047951 -5.12860662 93.63047951 -7.5703125 93.5859375 C-8.37742676 93.55032715 -9.18454102 93.5147168 -10.01611328 93.47802734 C-11.0420459 93.44402832 -12.06797852 93.4100293 -13.125 93.375 C-16.38375 93.25125 -19.6425 93.1275 -23 93 C-23 85.41 -23 77.82 -23 70 C-13.125 69.625 -13.125 69.625 -10.01611328 69.52197266 C-8.80544189 69.46855713 -8.80544189 69.46855713 -7.5703125 69.4140625 C-6.74289551 69.3826416 -5.91547852 69.3512207 -5.06298828 69.31884766 C-2.78013915 69.17400863 -2.78013915 69.17400863 -1 67 C-0.7072026 65.08044799 -0.7072026 65.08044799 -0.76953125 62.90234375 C-0.77146484 62.10119141 -0.77339844 61.30003906 -0.77539062 60.47460938 C-0.78763672 59.63736328 -0.79988281 58.80011719 -0.8125 57.9375 C-0.81314453 57.09638672 -0.81378906 56.25527344 -0.81445312 55.38867188 C-0.44692842 51.37484132 -0.44692842 51.37484132 -2 48 C-4.99018161 47.87332236 -7.94694108 47.81479162 -10.9375 47.8125 C-11.77474609 47.80025391 -12.61199219 47.78800781 -13.47460938 47.77539062 C-14.27576172 47.77345703 -15.07691406 47.77152344 -15.90234375 47.76953125 C-17.00823853 47.76336792 -17.00823853 47.76336792 -18.13647461 47.75708008 C-20.24597306 47.83945778 -20.24597306 47.83945778 -22 50 C-22.29227954 53.60724753 -22.41549238 57.17468208 -22.47851562 60.79101562 C-22.68208378 66.55546997 -22.68208378 66.55546997 -24.23583984 68.72802734 C-26.52241391 70.37666433 -27.86714597 70.34648766 -30.66796875 70.29296875 C-31.47258545 70.28547607 -32.27720215 70.2779834 -33.10620117 70.27026367 C-34.12302979 70.24295166 -35.1398584 70.21563965 -36.1875 70.1875 C-39.425625 70.125625 -42.66375 70.06375 -46 70 C-46 62.41 -46 54.82 -46 47 C-36.125 46.625 -36.125 46.625 -33.01611328 46.52197266 C-32.20899902 46.4863623 -31.40188477 46.45075195 -30.5703125 46.4140625 C-29.74289551 46.3826416 -28.91547852 46.3512207 -28.06298828 46.31884766 C-25.78013915 46.17400863 -25.78013915 46.17400863 -24 44 C-23.62995706 41.77341846 -23.62995706 41.77341846 -23.5859375 39.2109375 C-23.54726562 38.26992188 -23.50859375 37.32890625 -23.46875 36.359375 C-23.4378125 35.37453125 -23.406875 34.3896875 -23.375 33.375 C-23.33632812 32.38242187 -23.29765625 31.38984375 -23.2578125 30.3671875 C-23.1633686 27.91164615 -23.07780125 25.4561159 -23 23 C-22.36908447 22.97494385 -21.73816895 22.9498877 -21.08813477 22.92407227 C-18.24603175 22.80845863 -15.40428917 22.68557684 -12.5625 22.5625 C-11.07266602 22.50352539 -11.07266602 22.50352539 -9.55273438 22.44335938 C-8.60849609 22.40146484 -7.66425781 22.35957031 -6.69140625 22.31640625 C-5.81685791 22.27974854 -4.94230957 22.24309082 -4.04125977 22.20532227 C-2.0072598 22.21818934 -2.0072598 22.21818934 -1 21 C-0.84313751 19.44051458 -0.74923361 17.87457332 -0.68359375 16.30859375 C-0.64548584 15.45837646 -0.60737793 14.60815918 -0.56811523 13.73217773 C-0.52501221 12.64493408 -0.48190918 11.55769043 -0.4375 10.4375 C-0.293125 6.993125 -0.14875 3.54875 0 0 Z " fill="#77CDC7" transform="translate(90,12)"/>
<path d="M0 0 C14.52 0 29.04 0 44 0 C44.144375 5.960625 44.28875 11.92125 44.4375 18.0625 C44.50122803 19.93043213 44.56495605 21.79836426 44.63061523 23.72290039 C44.92204387 37.227189 44.92204387 37.227189 41.65625 41.65625 C35.36518192 46.29500562 25.40610226 44.68804084 18.0625 44.4375 C9.1215625 44.2209375 9.1215625 44.2209375 0 44 C0 29.48 0 14.96 0 0 Z " fill="#04878F" transform="translate(61,144)"/>
<path d="M0 0 C15.51 0 31.02 0 47 0 C47.12375 6.14625 47.2475 12.2925 47.375 18.625 C47.42962402 20.55424316 47.48424805 22.48348633 47.54052734 24.47119141 C47.55806454 26.01462303 47.57335068 27.55808257 47.5859375 29.1015625 C47.6166333 29.89135498 47.6473291 30.68114746 47.67895508 31.49487305 C47.68381621 36.6622538 46.60756062 39.32036759 42.97549438 43.00033569 C41 44 41 44 34 44 C34 33.77 34 23.54 34 13 C27.07 13 20.14 13 13 13 C13 23.23 13 33.46 13 44 C8.71 44 4.42 44 0 44 C0 29.48 0 14.96 0 0 Z " fill="#078890" transform="translate(109,144)"/>
<path d="M0 0 C7.92 0 15.84 0 24 0 C24 7.59 24 15.18 24 23 C17.07 23 10.14 23 3 23 C2.34 24.32 1.68 25.64 1 27 C0.01 26.34 -0.98 25.68 -2 25 C-3.93623193 24.81589603 -3.93623193 24.81589603 -6.01171875 25.0234375 C-6.76904297 25.075 -7.52636719 25.1265625 -8.30664062 25.1796875 C-9.09232422 25.24414062 -9.87800781 25.30859375 -10.6875 25.375 C-11.48478516 25.43171875 -12.28207031 25.4884375 -13.10351562 25.546875 C-15.06973581 25.68816028 -17.03498824 25.84279906 -19 26 C-20.50121825 30.21995996 -21.2140723 33.50448168 -21 38 C-19.68 38 -18.36 38 -17 38 C-17 35.36 -17 32.72 -17 30 C-13.7 30 -10.4 30 -7 30 C-7 33.3 -7 36.6 -7 40 C-9.475 40.495 -9.475 40.495 -12 41 C-11.505 42.98 -11.505 42.98 -11 45 C-8.36 45.33 -5.72 45.66 -3 46 C-3 46.33 -3 46.66 -3 47 C-4.20398438 47.04898438 -5.40796875 47.09796875 -6.6484375 47.1484375 C-8.22398198 47.22346343 -9.79950166 47.29901133 -11.375 47.375 C-12.1690625 47.4059375 -12.963125 47.436875 -13.78125 47.46875 C-18.36667375 47.51816421 -18.36667375 47.51816421 -22 50 C-22.29227954 53.60724753 -22.41549238 57.17468208 -22.47851562 60.79101562 C-22.68208378 66.55546997 -22.68208378 66.55546997 -24.23583984 68.72802734 C-26.52241391 70.37666433 -27.86714597 70.34648766 -30.66796875 70.29296875 C-31.47258545 70.28547607 -32.27720215 70.2779834 -33.10620117 70.27026367 C-34.12302979 70.24295166 -35.1398584 70.21563965 -36.1875 70.1875 C-39.425625 70.125625 -42.66375 70.06375 -46 70 C-46 62.41 -46 54.82 -46 47 C-36.125 46.625 -36.125 46.625 -33.01611328 46.52197266 C-32.20899902 46.4863623 -31.40188477 46.45075195 -30.5703125 46.4140625 C-29.74289551 46.3826416 -28.91547852 46.3512207 -28.06298828 46.31884766 C-25.78013915 46.17400863 -25.78013915 46.17400863 -24 44 C-23.62995706 41.77341846 -23.62995706 41.77341846 -23.5859375 39.2109375 C-23.54726562 38.26992188 -23.50859375 37.32890625 -23.46875 36.359375 C-23.4378125 35.37453125 -23.406875 34.3896875 -23.375 33.375 C-23.33632812 32.38242187 -23.29765625 31.38984375 -23.2578125 30.3671875 C-23.1633686 27.91164615 -23.07780125 25.4561159 -23 23 C-22.36908447 22.97494385 -21.73816895 22.9498877 -21.08813477 22.92407227 C-18.24603175 22.80845863 -15.40428917 22.68557684 -12.5625 22.5625 C-11.07266602 22.50352539 -11.07266602 22.50352539 -9.55273438 22.44335938 C-8.60849609 22.40146484 -7.66425781 22.35957031 -6.69140625 22.31640625 C-5.81685791 22.27974854 -4.94230957 22.24309082 -4.04125977 22.20532227 C-2.0072598 22.21818934 -2.0072598 22.21818934 -1 21 C-0.84313751 19.44051458 -0.74923361 17.87457332 -0.68359375 16.30859375 C-0.64548584 15.45837646 -0.60737793 14.60815918 -0.56811523 13.73217773 C-0.52501221 12.64493408 -0.48190918 11.55769043 -0.4375 10.4375 C-0.293125 6.993125 -0.14875 3.54875 0 0 Z " fill="#7DCCC5" transform="translate(90,12)"/>
<path d="M0 0 C0 14.52 0 29.04 0 44 C-4.29 44 -8.58 44 -13 44 C-13.14877685 38.69820338 -13.25741519 33.39763197 -13.32958984 28.09423828 C-13.35968749 26.29193954 -13.40057677 24.48978638 -13.45263672 22.68798828 C-13.52576815 20.09110563 -13.55952439 17.49616509 -13.5859375 14.8984375 C-13.61690521 14.0982016 -13.64787292 13.2979657 -13.67977905 12.47348022 C-13.68285017 7.32089788 -12.5960749 4.66799521 -8.97549438 0.99966431 C-7 0 -7 0 0 0 Z " fill="#028891" transform="translate(57,144)"/>
<path d="M0 0 C0.99 0.66 1.98 1.32 3 2 C5.22131423 2.3650791 5.22131423 2.3650791 7.66796875 2.4140625 C8.47258545 2.44967285 9.27720215 2.4852832 10.10620117 2.52197266 C11.63144409 2.57297119 11.63144409 2.57297119 13.1875 2.625 C16.425625 2.74875 19.66375 2.8725 23 3 C23 10.59 23 18.18 23 26 C15.41 26 7.82 26 0 26 C-0.375 16.1875 -0.375 16.1875 -0.47802734 13.10620117 C-0.5136377 12.30158447 -0.54924805 11.49696777 -0.5859375 10.66796875 C-0.6173584 9.84578857 -0.6487793 9.0236084 -0.68115234 8.17651367 C-0.88373622 5.71047063 -0.88373622 5.71047063 -3 3 C-2.34 3 -1.68 3 -1 3 C-0.67 2.01 -0.34 1.02 0 0 Z " fill="#86CBC5" transform="translate(90,102)"/>
<path d="M0 0 C2.26979665 -0.10794277 4.54105196 -0.18556176 6.8125 -0.25 C8.07707031 -0.29640625 9.34164062 -0.3428125 10.64453125 -0.390625 C14 0 14 0 15.94921875 2.015625 C16.29597656 2.67046875 16.64273438 3.3253125 17 4 C16.34 4 15.68 4 15 4 C15 7.63 15 11.26 15 15 C16.65 15 18.3 15 20 15 C21.125 19.75 21.125 19.75 20 22 C13.07 21.67 6.14 21.34 -1 21 C-1.020625 17.90625 -1.04125 14.8125 -1.0625 11.625 C-1.071604 10.65127441 -1.08070801 9.67754883 -1.09008789 8.67431641 C-1.09258545 7.90780762 -1.09508301 7.14129883 -1.09765625 6.3515625 C-1.10289307 5.56604004 -1.10812988 4.78051758 -1.11352539 3.97119141 C-1 2 -1 2 0 0 Z " fill="#77CCC7" transform="translate(69,83)"/>
<path d="M0 0 C4.29 0 8.58 0 13 0 C13 8.58 13 17.16 13 26 C8.71 26 4.42 26 0 26 C0 17.42 0 8.84 0 0 Z " fill="#028890" transform="translate(126,162)"/>
<path d="M0 0 C5.94 0 11.88 0 18 0 C18 5.94 18 11.88 18 18 C12.06 18 6.12 18 0 18 C0 12.06 0 6.12 0 0 Z " fill="#FDFEFD" transform="translate(74,157)"/>
<path d="M0 0 C14.52 0 29.04 0 44 0 C44 12.21 44 24.42 44 37 C43.67 37 43.34 37 43 37 C43 25.12 43 13.24 43 1 C37.451875 1.12375 31.90375 1.2475 26.1875 1.375 C23.56590942 1.42599854 23.56590942 1.42599854 20.89135742 1.47802734 C19.50437501 1.51323676 18.11741042 1.5491584 16.73046875 1.5859375 C16.01169556 1.59729736 15.29292236 1.60865723 14.55236816 1.62036133 C10.84974436 1.72802214 9.15973531 1.89350979 6 4 C5.01 4.33 4.02 4.66 3 5 C2.67 17.21 2.34 29.42 2 42 C9.734375 41.8453125 9.734375 41.8453125 17.625 41.6875 C19.24100098 41.66260498 20.85700195 41.63770996 22.52197266 41.61206055 C23.8063623 41.57894775 25.09075195 41.54583496 26.4140625 41.51171875 C28.37786865 41.47244263 28.37786865 41.47244263 30.38134766 41.43237305 C34.20131667 40.97594577 36.6347275 39.78429488 40 38 C40.99 38.495 40.99 38.495 42 39 C38.26245908 43.70038871 38.26245908 43.70038871 35.11679077 44.44692993 C32.86955295 44.5772748 30.66770521 44.56269822 28.41796875 44.48828125 C27.69565063 44.48324585 26.97333252 44.47821045 26.22912598 44.47302246 C23.54817634 44.44699382 20.86779553 44.37718613 18.1875 44.3125 C12.185625 44.209375 6.18375 44.10625 0 44 C0 29.48 0 14.96 0 0 Z " fill="#3E9BA1" transform="translate(61,144)"/>
<path d="M0 0 C5.28 0 10.56 0 16 0 C16 5.28 16 10.56 16 16 C10.72 16 5.44 16 0 16 C0 10.72 0 5.44 0 0 Z " fill="#06898E" transform="translate(94,109)"/>
<path d="M0 0 C5.28 0 10.56 0 16 0 C16 5.28 16 10.56 16 16 C10.72 16 5.44 16 0 16 C0 10.72 0 5.44 0 0 Z " fill="#0D8990" transform="translate(140,62)"/>
<path d="M0 0 C5.28 0 10.56 0 16 0 C16 5.28 16 10.56 16 16 C10.72 16 5.44 16 0 16 C0 10.72 0 5.44 0 0 Z " fill="#06898F" transform="translate(94,62)"/>
<path d="M0 0 C5.28 0 10.56 0 16 0 C16 5.28 16 10.56 16 16 C10.72 16 5.44 16 0 16 C0 10.72 0 5.44 0 0 Z " fill="#0F868C" transform="translate(117,39)"/>
<path d="M0 0 C5.28 0 10.56 0 16 0 C16 5.28 16 10.56 16 16 C10.72 16 5.44 16 0 16 C0 10.72 0 5.44 0 0 Z " fill="#03888F" transform="translate(94,16)"/>
<path d="M0 0 C5.94 0 11.88 0 18 0 C18 7.59 18 15.18 18 23 C8.125 23.375 8.125 23.375 5.01611328 23.47802734 C4.20899902 23.5136377 3.40188477 23.54924805 2.5703125 23.5859375 C1.74289551 23.6173584 0.91547852 23.6487793 0.06298828 23.68115234 C-2.21986085 23.82599137 -2.21986085 23.82599137 -4 26 C-4.3063859 28.73434962 -4.5113336 31.38279821 -4.625 34.125 C-4.66367188 34.87910156 -4.70234375 35.63320312 -4.7421875 36.41015625 C-4.83651031 38.27303184 -4.91934662 40.13648255 -5 42 C-5.33 41.01 -5.66 40.02 -6 39 C-8.97 39.495 -8.97 39.495 -12 40 C-11.91621094 39.09636719 -11.83242187 38.19273438 -11.74609375 37.26171875 C-11.64425781 36.08222656 -11.54242188 34.90273437 -11.4375 33.6875 C-11.33308594 32.51574219 -11.22867188 31.34398437 -11.12109375 30.13671875 C-10.81422566 26.96967425 -10.81422566 26.96967425 -12 24 C-16.62 24 -21.24 24 -26 24 C-26.33 30.93 -26.66 37.86 -27 45 C-20.73 45 -14.46 45 -8 45 C-8 45.33 -8 45.66 -8 46 C-14.6 46 -21.2 46 -28 46 C-28 38.41 -28 30.82 -28 23 C-18.1875 22.625 -18.1875 22.625 -15.10620117 22.52197266 C-13.89927612 22.46855713 -13.89927612 22.46855713 -12.66796875 22.4140625 C-11.43469849 22.36693115 -11.43469849 22.36693115 -10.17651367 22.31884766 C-7.71047063 22.11626378 -7.71047063 22.11626378 -5 20 C-5 20.66 -5 21.32 -5 22 C4.9 21.505 4.9 21.505 15 21 C16.64812648 17.70374704 16.38249331 14.00541525 16.5625 10.375 C16.706875 7.61125 16.85125 4.8475 17 2 C11.39 1.67 5.78 1.34 0 1 C0 0.67 0 0.34 0 0 Z " fill="#80C9C3" transform="translate(95,59)"/>
<path d="M0 0 C5.28 0 10.56 0 16 0 C16 4.95 16 9.9 16 15 C10.72 15 5.44 15 0 15 C0 10.05 0 5.1 0 0 Z " fill="#018790" transform="translate(117,86)"/>
<path d="M0 0 C7.26 0 14.52 0 22 0 C22 7.26 22 14.52 22 22 C14.41 22.33 6.82 22.66 -1 23 C-0.67 15.41 -0.34 7.82 0 0 Z M3 3 C3 8.28 3 13.56 3 19 C8.28 19 13.56 19 19 19 C19 13.72 19 8.44 19 3 C13.72 3 8.44 3 3 3 Z " fill="#74C9C2" transform="translate(91,13)"/>
<path d="M0 0 C3.3 0 6.6 0 10 0 C10 3.3 10 6.6 10 10 C8.35 10.33 6.7 10.66 5 11 C5.33 12.32 5.66 13.64 6 15 C8.64 15.33 11.28 15.66 14 16 C14 16.33 14 16.66 14 17 C8.06 17.33 2.12 17.66 -4 18 C-5.14077657 14.57767028 -5.09815117 11.91326783 -5.0625 8.3125 C-5.05347656 7.13300781 -5.04445313 5.95351563 -5.03515625 4.73828125 C-5.02355469 3.83464844 -5.01195313 2.93101563 -5 2 C-4.67 2 -4.34 2 -4 2 C-4 3.98 -4 5.96 -4 8 C-2.68 8 -1.36 8 0 8 C0 5.36 0 2.72 0 0 Z " fill="#82CEC8" transform="translate(73,42)"/>
<path d="M0 0 C1.32 0 2.64 0 4 0 C4 14.19 4 28.38 4 43 C2.68 43 1.36 43 0 43 C0 28.81 0 14.62 0 0 Z " fill="#E5FEFE" transform="translate(57,145)"/>
<path d="M0 0 C15.51 0 31.02 0 47 0 C47.12375 6.14625 47.2475 12.2925 47.375 18.625 C47.42962402 20.55424316 47.48424805 22.48348633 47.54052734 24.47119141 C47.55806454 26.01462303 47.57335068 27.55808257 47.5859375 29.1015625 C47.6166333 29.89135498 47.6473291 30.68114746 47.67895508 31.49487305 C47.68381621 36.6622538 46.60756062 39.32036759 42.97549438 43.00033569 C41 44 41 44 34 44 C34 33.77 34 23.54 34 13 C34.66 13.33 35.32 13.66 36 14 C36 23.24 36 32.48 36 42 C37.65 42 39.3 42 41 42 C41.33 41.01 41.66 40.02 42 39 C42.66 39 43.32 39 44 39 C45.22310252 35.33069244 45.23126337 31.87679856 45.31640625 28.05078125 C45.33505737 27.36576538 45.3537085 26.68074951 45.3729248 25.97497559 C45.44112075 23.42094577 45.50133438 20.86670785 45.5625 18.3125 C45.706875 12.599375 45.85125 6.88625 46 1 C30.82 1 15.64 1 0 1 C0 0.67 0 0.34 0 0 Z " fill="#369499" transform="translate(109,144)"/>
<path d="M0 0 C0 14.52 0 29.04 0 44 C-4.29 44 -8.58 44 -13 44 C-13 31.79 -13 19.58 -13 7 C-12.67 7 -12.34 7 -12 7 C-12 18.55 -12 30.1 -12 42 C-9.525 41.505 -9.525 41.505 -7 41 C-5.35 41.33 -3.7 41.66 -2 42 C-2 28.8 -2 15.6 -2 2 C-4.475 3.485 -4.475 3.485 -7 5 C-9.3125 4.6875 -9.3125 4.6875 -11 4 C-7.32408552 -0.70517053 -6.77782861 0 0 0 Z " fill="#2E8C91" transform="translate(57,144)"/>
<path d="M0 0 C0.96084503 0.00007553 1.92169006 0.00015106 2.91165161 0.00022888 C3.95127045 0.00539017 4.99088928 0.01055145 6.06201172 0.01586914 C7.12459198 0.01728409 8.18717224 0.01869904 9.2819519 0.02015686 C12.68522931 0.02576705 16.0884416 0.0383213 19.49169922 0.05102539 C21.79508369 0.05603908 24.09846918 0.06060221 26.40185547 0.06469727 C32.05682571 0.0757398 37.71175781 0.09248788 43.36669922 0.11352539 C43.36669922 0.44352539 43.36669922 0.77352539 43.36669922 1.11352539 C27.85669922 1.11352539 12.34669922 1.11352539 -3.63330078 1.11352539 C-3.63330078 15.63352539 -3.63330078 30.15352539 -3.63330078 45.11352539 C-5.63330078 43.11352539 -5.63330078 43.11352539 -6.63330078 40.11352539 C-9.10830078 42.58852539 -9.10830078 42.58852539 -11.63330078 45.11352539 C-12.62330078 44.78352539 -13.61330078 44.45352539 -14.63330078 44.11352539 C-13.66392578 43.22665039 -12.69455078 42.33977539 -11.69580078 41.42602539 C-9.03207836 38.7873733 -7.86016448 36.97020824 -7.63330078 33.11352539 C-7.30330078 33.11352539 -6.97330078 33.11352539 -6.63330078 33.11352539 C-6.63330078 22.55352539 -6.63330078 11.99352539 -6.63330078 1.11352539 C-4.21555497 -0.09534751 -2.69999014 -0.00706804 0 0 Z " fill="#D6F5F7" transform="translate(112.63330078125,142.886474609375)"/>
<path d="M0 0 C7.92 0 15.84 0 24 0 C24 7.59 24 15.18 24 23 C23.67 23 23.34 23 23 23 C23 15.74 23 8.48 23 1 C15.74 1 8.48 1 1 1 C1.03954176 7.82108473 1.03954176 7.82108473 1.09008789 14.64208984 C1.09258545 15.48980957 1.09508301 16.3375293 1.09765625 17.2109375 C1.10551147 18.51490479 1.10551147 18.51490479 1.11352539 19.84521484 C1 22 1 22 0 24 C0.99 24.33 1.98 24.66 3 25 C2.01 25.66 1.02 26.32 0 27 C-0.66 26.34 -1.32 25.68 -2 25 C-4.91952568 25.01748219 -7.72297885 25.13944633 -10.625 25.375 C-11.42679688 25.43171875 -12.22859375 25.4884375 -13.0546875 25.546875 C-15.03715498 25.68847982 -17.01869051 25.84302259 -19 26 C-21.15059309 29.53186832 -21.3797728 32.66287993 -21.625 36.75 C-21.69976562 37.92046875 -21.77453125 39.0909375 -21.8515625 40.296875 C-21.90054688 41.18890625 -21.94953125 42.0809375 -22 43 C-22.33 43 -22.66 43 -23 43 C-23 36.4 -23 29.8 -23 23 C-21.49566406 22.93941406 -19.99132812 22.87882812 -18.44140625 22.81640625 C-16.48176011 22.73201957 -14.52212524 22.64737065 -12.5625 22.5625 C-11.07266602 22.50352539 -11.07266602 22.50352539 -9.55273438 22.44335938 C-8.60849609 22.40146484 -7.66425781 22.35957031 -6.69140625 22.31640625 C-5.81685791 22.27974854 -4.94230957 22.24309082 -4.04125977 22.20532227 C-2.0072598 22.21818934 -2.0072598 22.21818934 -1 21 C-0.84313751 19.44051458 -0.74923361 17.87457332 -0.68359375 16.30859375 C-0.64548584 15.45837646 -0.60737793 14.60815918 -0.56811523 13.73217773 C-0.50346069 12.10131226 -0.50346069 12.10131226 -0.4375 10.4375 C-0.293125 6.993125 -0.14875 3.54875 0 0 Z " fill="#9ED6D2" transform="translate(90,12)"/>
<path d="M0 0 C0.80115234 -0.00128906 1.60230469 -0.00257812 2.42773438 -0.00390625 C3.26498047 -0.00003906 4.10222656 0.00382812 4.96484375 0.0078125 C5.80595703 0.00394531 6.64707031 0.00007813 7.51367188 -0.00390625 C13.77571693 0.00618568 13.77571693 0.00618568 14.90234375 1.1328125 C15.00258501 3.76856793 15.04109396 6.37235495 15.02734375 9.0078125 C15.03314453 10.10802734 15.03314453 10.10802734 15.0390625 11.23046875 C15.03318513 14.45714488 14.92953235 17.05124671 13.90234375 20.1328125 C8.29234375 20.1328125 2.68234375 20.1328125 -3.09765625 20.1328125 C-5.16129306 16.00553888 -5.51933208 12.86441599 -5.72265625 8.3828125 C-5.76132813 7.68542969 -5.8 6.98804687 -5.83984375 6.26953125 C-5.93364249 4.55770432 -6.01671799 2.84529568 -6.09765625 1.1328125 C-3.81874592 -0.00664266 -2.52983521 0.00387036 0 0 Z M-3.09765625 2.1328125 C-3.09765625 7.4128125 -3.09765625 12.6928125 -3.09765625 18.1328125 C2.18234375 18.1328125 7.46234375 18.1328125 12.90234375 18.1328125 C12.90234375 12.8528125 12.90234375 7.5728125 12.90234375 2.1328125 C7.62234375 2.1328125 2.34234375 2.1328125 -3.09765625 2.1328125 Z " fill="#6FCFCC" transform="translate(97.09765625,106.8671875)"/>
<path d="M0 0 C6.93 0 13.86 0 21 0 C21 10.23 21 20.46 21 31 C20.67 31 20.34 31 20 31 C19.505 17.14 19.505 17.14 19 3 C18.01 3 17.02 3 16 3 C16.33 3.66 16.66 4.32 17 5 C12.71 5 8.42 5 4 5 C4 4.34 4 3.68 4 3 C3.01 2.67 2.02 2.34 1 2 C1 11.57 1 21.14 1 31 C0.67 31 0.34 31 0 31 C0 20.77 0 10.54 0 0 Z " fill="#EBFEFE" transform="translate(122,157)"/>
<path d="M0 0 C5.94 0 11.88 0 18 0 C18 5.94 18 11.88 18 18 C12.06 18 6.12 18 0 18 C0 12.06 0 6.12 0 0 Z M1 3 C0.92741054 5.18639453 0.91626217 7.37500389 0.9375 9.5625 C0.958125 11.686875 0.97875 13.81125 1 16 C5.62 16 10.24 16 15 16 C15.94043148 11.29784261 16.15775038 7.73251153 16 3 C14.89259422 1.66789781 14.89259422 1.66789781 12.09375 1.8671875 C10.9078125 1.86976563 9.721875 1.87234375 8.5 1.875 C7.3140625 1.87242187 6.128125 1.86984375 4.90625 1.8671875 C2.10740578 1.66789781 2.10740578 1.66789781 1 3 Z " fill="#BFEAEC" transform="translate(74,157)"/>
<path d="M0 0 C2.33294775 -0.04241723 4.66702567 -0.04092937 7 0 C8 1 8 1 8.11352539 3.68383789 C8.10828857 4.85164795 8.10305176 6.01945801 8.09765625 7.22265625 C8.09443359 8.48271484 8.09121094 9.74277344 8.08789062 11.04101562 C8.07953403 12.38151109 8.07106907 13.72200588 8.0625 15.0625 C8.0574866 16.40689942 8.05292342 17.7513006 8.04882812 19.09570312 C8.03699488 22.39717941 8.02050971 25.69856803 8 29 C10.64 29 13.28 29 16 29 C16 29.33 16 29.66 16 30 C8.08 30 0.16 30 -8 30 C-8 29.67 -8 29.34 -8 29 C-3.71 29 0.58 29 5 29 C4.67 20.09 4.34 11.18 4 2 C2.68 1.34 1.36 0.68 0 0 Z " fill="#E3FEFE" transform="translate(134,159)"/>
<path d="M0 0 C4.29 0 8.58 0 13 0 C13 8.58 13 17.16 13 26 C8.71 26 4.42 26 0 26 C0 17.42 0 8.84 0 0 Z M1 1 C1 8.59 1 16.18 1 24 C4.3 24 7.6 24 11 24 C11 16.41 11 8.82 11 1 C7.7 1 4.4 1 1 1 Z " fill="#25878E" transform="translate(126,162)"/>
<path d="M0 0 C2.97 0 5.94 0 9 0 C9 3.3 9 6.6 9 10 C6.03 10 3.06 10 0 10 C0 6.7 0 3.4 0 0 Z " fill="#F9FEFD" transform="translate(74,42)"/>
<path d="M0 0 C5.28 0 10.56 0 16 0 C16 4.95 16 9.9 16 15 C10.72 15 5.44 15 0 15 C0 10.05 0 5.1 0 0 Z M2 1 C1.938125 2.77375 1.87625 4.5475 1.8125 6.375 C1.77769531 7.37273437 1.74289063 8.37046875 1.70703125 9.3984375 C1.85205078 10.68621094 1.85205078 10.68621094 2 12 C6.2024454 14.80163026 9.00104935 14.14489712 14 14 C14 9.71 14 5.42 14 1 C10.04 1 6.08 1 2 1 Z " fill="#1B8385" transform="translate(117,86)"/>
<path d="M0 0 C0.33 0 0.66 0 1 0 C1 5.28 1 10.56 1 16 C6.28 16 11.56 16 17 16 C17.33 16.99 17.66 17.98 18 19 C11.07 19 4.14 19 -3 19 C-2.67 17.02 -2.34 15.04 -2 13 C-1.34 13 -0.68 13 0 13 C0 8.71 0 4.42 0 0 Z " fill="#65C7C3" transform="translate(93,62)"/>
<path d="M0 0 C2.97 0 5.94 0 9 0 C9 2.97 9 5.94 9 9 C6.03 9 3.06 9 0 9 C0 6.03 0 3.06 0 0 Z " fill="#F5FEFD" transform="translate(74,89)"/>
<path d="M0 0 C2.97 0 5.94 0 9 0 C9 2.97 9 5.94 9 9 C6.03 9 3.06 9 0 9 C0 6.03 0 3.06 0 0 Z " fill="#E8FEFE" transform="translate(51,66)"/>
<path d="M0 0 C1.34384766 0.07250977 1.34384766 0.07250977 2.71484375 0.14648438 C3.65199219 0.20255859 4.58914062 0.25863281 5.5546875 0.31640625 C6.97201172 0.3947168 6.97201172 0.3947168 8.41796875 0.47460938 C10.7555294 0.60447386 13.09268295 0.73944495 15.4296875 0.87890625 C15.0996875 1.53890625 14.7696875 2.19890625 14.4296875 2.87890625 C7.8296875 2.87890625 1.2296875 2.87890625 -5.5703125 2.87890625 C-5.5703125 10.46890625 -5.5703125 18.05890625 -5.5703125 25.87890625 C-5.9003125 25.87890625 -6.2303125 25.87890625 -6.5703125 25.87890625 C-6.5703125 17.62890625 -6.5703125 9.37890625 -6.5703125 0.87890625 C-4.11781157 -0.34734422 -2.72720815 -0.1553473 0 0 Z " fill="#DEF9F8" transform="translate(49.5703125,56.12109375)"/>
<path d="M0 0 C1.23327026 0.0314209 1.23327026 0.0314209 2.49145508 0.06347656 C3.38413086 0.07636719 4.27680664 0.08925781 5.1965332 0.10253906 C6.12530273 0.13605469 7.05407227 0.16957031 8.01098633 0.20410156 C8.95135742 0.22214844 9.89172852 0.24019531 10.8605957 0.25878906 C13.18258522 0.30593606 15.50252322 0.37171925 17.82348633 0.45410156 C17.82348633 1.11410156 17.82348633 1.77410156 17.82348633 2.45410156 C16.61950195 2.50308594 15.41551758 2.55207031 14.17504883 2.60253906 C12.59950435 2.67756499 11.02398467 2.7531129 9.44848633 2.82910156 C8.65442383 2.86003906 7.86036133 2.89097656 7.04223633 2.92285156 C2.45681258 2.97226577 2.45681258 2.97226577 -1.17651367 5.45410156 C-1.83651367 5.45410156 -2.49651367 5.45410156 -3.17651367 5.45410156 C-3.50651367 10.73410156 -3.83651367 16.01410156 -4.17651367 21.45410156 C-4.50651367 21.45410156 -4.83651367 21.45410156 -5.17651367 21.45410156 C-5.25759013 18.70350775 -5.3170418 15.95531135 -5.36401367 13.20410156 C-5.38915039 12.42679688 -5.41428711 11.64949219 -5.44018555 10.84863281 C-5.44985352 10.09453125 -5.45952148 9.34042969 -5.46948242 8.56347656 C-5.48519287 7.8722168 -5.50090332 7.18095703 -5.51708984 6.46875 C-4.92658626 2.97567793 -3.5577297 0.74227451 0 0 Z " fill="#DBF6F5" transform="translate(95.176513671875,34.5458984375)"/>
<path d="M0 0 C0.33 0 0.66 0 1 0 C1 5.28 1 10.56 1 16 C6.61 16 12.22 16 18 16 C18 10.72 18 5.44 18 0 C18.33 0 18.66 0 19 0 C19 5.61 19 11.22 19 17 C9.595 17.495 9.595 17.495 0 18 C0 18.66 0 19.32 0 20 C-0.66 20 -1.32 20 -2 20 C-1.34 13.4 -0.68 6.8 0 0 Z " fill="#6FD0CB" transform="translate(92,16)"/>
<path d="M0 0 C6.93 0 13.86 0 21 0 C21 10.23 21 20.46 21 31 C20.67 31 20.34 31 20 31 C19.505 17.14 19.505 17.14 19 3 C15.70039859 1.3501993 12.00872116 1.61741639 8.375 1.4375 C7.57320312 1.39431641 6.77140625 1.35113281 5.9453125 1.30664062 C3.9637489 1.20048543 1.98189729 1.09973145 0 1 C0 0.67 0 0.34 0 0 Z " fill="#C3F1F1" transform="translate(122,157)"/>
<path d="M0 0 C0.80179688 0.05220703 1.60359375 0.10441406 2.4296875 0.15820312 C4.41179103 0.28798371 6.39344499 0.42459735 8.375 0.5625 C8.375 0.8925 8.375 1.2225 8.375 1.5625 C3.095 1.5625 -2.185 1.5625 -7.625 1.5625 C-7.625 6.8425 -7.625 12.1225 -7.625 17.5625 C-10.47114024 14.71635976 -10.08079076 11.75880858 -10.25 7.9375 C-10.28867188 7.23109375 -10.32734375 6.5246875 -10.3671875 5.796875 C-10.46147724 4.05251476 -10.54432891 2.30754309 -10.625 0.5625 C-7.2967269 -1.10163655 -3.62766027 -0.25617406 0 0 Z " fill="#5CC3C1" transform="translate(101.625,107.4375)"/>
<path d="M0 0 C2.33294775 -0.04241723 4.66702567 -0.04092937 7 0 C8 1 8 1 8.11352539 2.94946289 C8.10828857 3.7821167 8.10305176 4.61477051 8.09765625 5.47265625 C8.09443359 6.37177734 8.09121094 7.27089844 8.08789062 8.19726562 C8.07951172 9.14279297 8.07113281 10.08832031 8.0625 11.0625 C8.05798828 12.01189453 8.05347656 12.96128906 8.04882812 13.93945312 C8.0370011 16.29303065 8.02052025 18.64648477 8 21 C7.34 21 6.68 21 6 21 C5.67 15.06 5.34 9.12 5 3 C2.525 2.01 2.525 2.01 0 1 C0 0.67 0 0.34 0 0 Z " fill="#F4FEFE" transform="translate(134,159)"/>
<path d="M0 0 C2.8125 -0.25 2.8125 -0.25 6 0 C7.875 2 7.875 2 9 4 C8.34 4 7.68 4 7 4 C7 7.63 7 11.26 7 15 C6.67 15 6.34 15 6 15 C6 12.03 6 9.06 6 6 C3.03 6 0.06 6 -3 6 C-3 5.67 -3 5.34 -3 5 C-1.35 4.67 0.3 4.34 2 4 C2.33 3.01 2.66 2.02 3 1 C2.01 0.67 1.02 0.34 0 0 Z " fill="#86CECA" transform="translate(77,83)"/>
<path d="M0 0 C1.98 0 3.96 0 6 0 C6 2.31 6 4.62 6 7 C3.69 6.67 1.38 6.34 -1 6 C-0.67 4.02 -0.34 2.04 0 0 Z " fill="#FDFDFC" transform="translate(53,67)"/>
<path d="M0 0 C0.33 0.66 0.66 1.32 1 2 C8.59 2 16.18 2 24 2 C24 2.33 24 2.66 24 3 C23.40985107 3.01981934 22.81970215 3.03963867 22.21166992 3.06005859 C19.53649904 3.15534659 16.86210502 3.26500939 14.1875 3.375 C13.25873047 3.4059375 12.32996094 3.436875 11.37304688 3.46875 C10.48037109 3.50742188 9.58769531 3.54609375 8.66796875 3.5859375 C7.84578857 3.6173584 7.0236084 3.6487793 6.17651367 3.68115234 C3.71047063 3.88373622 3.71047063 3.88373622 1 6 C0.01 4.68 -0.98 3.36 -2 2 C-1.34 1.34 -0.68 0.68 0 0 Z " fill="#8CCCC8" transform="translate(89,79)"/>
<path d="M0 0 C2.97 0 5.94 0 9 0 C9 3.3 9 6.6 9 10 C6.03 10 3.06 10 0 10 C0 9.67 0 9.34 0 9 C1.98 8.67 3.96 8.34 6 8 C6.66 6.02 7.32 4.04 8 2 C5.36 1.67 2.72 1.34 0 1 C0 0.67 0 0.34 0 0 Z " fill="#D8F5F5" transform="translate(74,42)"/>
<path d="M0 0 C0.33 0.66 0.66 1.32 1 2 C-3.29 2 -7.58 2 -12 2 C-12 1.34 -12 0.68 -12 0 C-7.74936599 -1.15926382 -4.29942266 -0.90949326 0 0 Z " fill="#C9E8EA" transform="translate(138,160)"/>
<path d="M0 0 C0 2.64 0 5.28 0 8 C-0.33 8 -0.66 8 -1 8 C-1 5.69 -1 3.38 -1 1 C-1.7425 1.515625 -2.485 2.03125 -3.25 2.5625 C-6 4 -6 4 -8.3125 3.6875 C-9.1478125 3.3471875 -9.1478125 3.3471875 -10 3 C-7.29536552 -0.8183075 -4.37912428 -0.24787496 0 0 Z " fill="#19868B" transform="translate(56,145)"/>
<path d="M0 0 C0.66 0 1.32 0 2 0 C2.33 3.3 2.66 6.6 3 10 C2.01 10 1.02 10 0 10 C0 6.7 0 3.4 0 0 Z " fill="#8DCCCB" transform="translate(83,42)"/>
</svg>
