<svg id="eceKfBhStRH1" xmlns="http://www.w3.org/2000/svg" xmlns:xlink="http://www.w3.org/1999/xlink" viewBox="0 0 32 32" shape-rendering="geometricPrecision" text-rendering="geometricPrecision" project-id="32a4a7327d934b08a12536759aee7ade" export-id="d315920b59d14b07b37e7784e5386952" cached="false"><path d="M140.25,88.851562c1.683594,0,3.363281.082032,5.039062.246094s3.339844.410156,4.988282.738282c1.652344.332031,3.285156.738281,4.894531,1.226562s3.195313,1.054688,4.75,1.699219s3.074219,1.363281,4.558594,2.15625c1.484375.796875,2.925781,1.660156,4.328125,2.59375c1.398437.9375,2.75,1.9375,4.050781,3.003906c1.300781,1.070313,2.546875,2.199219,3.738281,3.390625c1.191406,1.1875,2.320313,2.433594,3.386719,3.738281c1.066406,1.300781,2.070313,2.648438,3.003906,4.050781.9375,1.398438,1.800781,2.839844,2.59375,4.324219s1.511719,3.007813,2.15625,4.5625s1.210938,3.136719,1.699219,4.75c.488281,1.609375.898438,3.238281,1.226562,4.890625s.574219,3.316406.742188,4.988282c.164062,1.675781.246094,3.355468.246094,5.039062s-.082032,3.363281-.246094,5.039062c-.167969,1.675782-.414062,3.339844-.742188,4.988282-.328124,1.652344-.738281,3.285156-1.226562,4.894531s-1.054688,3.195313-1.699219,4.75-1.363281,3.074219-2.15625,4.558594-1.65625,2.925781-2.59375,4.328125c-.933593,1.398437-1.9375,2.75-3.003906,4.050781s-2.195313,2.546875-3.386719,3.738281-2.4375,2.320313-3.738281,3.386719-2.652344,2.070313-4.050781,3.003906c-1.402344.9375-2.84375,1.800781-4.328125,2.59375s-3.003907,1.511719-4.558594,2.15625-3.140625,1.210938-4.75,1.699219-3.242187.898438-4.894531,1.226562c-1.648438.328126-3.3125.574219-4.988282.742188-1.675781.164062-3.355468.246094-5.039062.246094s-3.363281-.082032-5.039062-.246094c-1.671876-.167969-3.335938-.414062-4.988282-.742188s-3.28125-.738281-4.890625-1.226562c-1.613281-.488281-3.195312-1.054688-4.75-1.699219s-3.078125-1.363281-4.5625-2.15625-2.925781-1.65625-4.324219-2.59375c-1.402343-.933593-2.75-1.9375-4.050781-3.003906-1.304687-1.066406-2.550781-2.195313-3.738281-3.386719-1.191406-1.191406-2.320312-2.4375-3.390625-3.738281-1.066406-1.300781-2.066406-2.652344-3.003906-4.050781-.933594-1.402344-1.796875-2.84375-2.59375-4.328125-.792969-1.484375-1.511719-3.003907-2.15625-4.558594s-1.210938-3.140625-1.699219-4.75-.894531-3.242187-1.226562-4.894531c-.328126-1.648438-.574219-3.3125-.738282-4.988282s-.246094-3.355468-.246094-5.039062.085938-3.359375.25-5.035156c.167969-1.675782.417969-3.335938.746094-4.988282.328125-1.648437.738282-3.28125,1.230469-4.890624.488281-1.609376,1.054687-3.191407,1.699219-4.746094s1.367187-3.074219,2.160156-4.558594s1.65625-2.925781,2.59375-4.324219c.933594-1.398437,1.9375-2.746093,3.003906-4.046875s2.195313-2.546875,3.386719-3.738281s2.4375-2.320313,3.738281-3.386719s2.648438-2.070312,4.046875-3.003906c1.398438-.9375,2.839844-1.800781,4.324219-2.59375s3.003906-1.515625,4.558594-2.160156s3.136718-1.210938,4.746094-1.699219c1.609374-.492187,3.242187-.902344,4.890624-1.230469c1.652344-.328125,3.3125-.578125,4.988282-.746094c1.675781-.164062,3.351562-.25,5.035156-.25m0-9.792968c-2.003906,0-4.003906.097656-5.996094.296875-1.996094.195312-3.976562.488281-5.941406.878906s-3.90625.878906-5.824219,1.460937-3.804687,1.253907-5.652343,2.023438c-1.851563.765625-3.664063,1.621094-5.429688,2.566406-1.769531.945313-3.484375,1.972656-5.152344,3.085938-1.664062,1.113281-3.273437,2.308594-4.824218,3.578125-1.546876,1.269531-3.03125,2.617187-4.449219,4.03125-1.414063,1.417969-2.761719,2.902343-4.03125,4.449219-1.269531,1.550781-2.464844,3.160156-3.578125,4.824218-1.113282,1.667969-2.140625,3.382813-3.085938,5.152344-.945312,1.765625-1.800781,3.578125-2.566406,5.425781-.769531,1.851563-1.441406,3.738281-2.023438,5.65625s-1.070312,3.859375-1.460937,5.824219-.683594,3.945312-.878906,5.941406c-.199219,1.992188-.296875,3.992188-.296875,5.996094s.097656,4.003906.296875,6c.195312,1.992188.488281,3.972656.878906,5.9375.390625,1.96875.878906,3.910156,1.460937,5.828125s1.253907,3.800781,2.023438,5.652344c.765625,1.851562,1.621094,3.660156,2.566406,5.429687.945313,1.765625,1.972656,3.484375,3.085938,5.148438c1.113281,1.667968,2.308594,3.273437,3.578125,4.824218s2.617187,3.03125,4.03125,4.449219c1.417969,1.417969,2.902343,2.761719,4.449219,4.03125c1.550781,1.273438,3.160156,2.464844,4.824218,3.578125c1.667969,1.113282,3.382813,2.144532,5.152344,3.089844c1.765625.941406,3.578125,1.800781,5.429688,2.566406c1.847656.765625,3.734374,1.441406,5.652343,2.023438s3.859375,1.066406,5.824219,1.457031s3.945312.6875,5.941406.882813c1.992188.195312,3.992188.292968,5.996094.292968s4.003906-.097656,6-.292968c1.992188-.195313,3.972656-.492188,5.9375-.882813c1.96875-.390625,3.910156-.875,5.828125-1.457031s3.800781-1.257813,5.652344-2.023438s3.660156-1.625,5.429687-2.566406c1.765625-.945312,3.484375-1.976562,5.148438-3.089844c1.667968-1.113281,3.273437-2.304687,4.824218-3.578125c1.550782-1.269531,3.03125-2.613281,4.449219-4.03125s2.761719-2.898437,4.03125-4.449219c1.273438-1.550781,2.464844-3.15625,3.578125-4.824218c1.113282-1.664063,2.144532-3.382813,3.089844-5.148438.941406-1.769531,1.800781-3.578125,2.566406-5.429687s1.441406-3.734375,2.023438-5.652344s1.066406-3.859375,1.457031-5.828125c.390625-1.964844.6875-3.945312.882813-5.9375.195312-1.996094.292968-3.996094.292968-6s-.097656-4.003906-.292968-5.996094c-.195313-1.996094-.492188-3.976562-.882813-5.941406s-.875-3.90625-1.457031-5.824219-1.257813-3.804687-2.023438-5.652343c-.765625-1.851563-1.625-3.664063-2.566406-5.429688-.945312-1.769531-1.976562-3.484375-3.089844-5.152344-1.113281-1.664062-2.304687-3.273437-3.578125-4.824218-1.269531-1.546876-2.613281-3.03125-4.03125-4.449219-1.417969-1.414063-2.898437-2.761719-4.449219-4.03125s-3.15625-2.464844-4.824218-3.578125c-1.664063-1.113282-3.382813-2.140625-5.148438-3.085938-1.769531-.945312-3.578125-1.800781-5.429687-2.566406-1.851563-.769531-3.734375-1.441406-5.652344-2.023438s-3.859375-1.070312-5.828125-1.460937c-1.964844-.390625-3.945312-.683594-5.9375-.878906-1.996094-.199219-3.996094-.296875-6-.296875Zm0,0" transform="matrix(.18 0 0 0.18-9.245-9.245)"/></svg>
