<svg id="eCGFJu1KpdD1" xmlns="http://www.w3.org/2000/svg" xmlns:xlink="http://www.w3.org/1999/xlink" viewBox="0 0 34 32" shape-rendering="geometricPrecision" text-rendering="geometricPrecision" project-id="441c9b83f0a14a68a7ec5acd541822fc" export-id="224eaf9d832e449ab56e80edf12e2aff" cached="false"><path d="M93.112492,422.450214l126.75-271.900434" transform="matrix(.08 0 0 0.08-5.449-6.92)" fill="none" stroke="#000" stroke-width="20" stroke-miterlimit="10"/><path d="M353.111239,422.450214L479.887488,150.54978" transform="matrix(.08 0 0 0.08-6.448899-6.917756)" fill="none" stroke="#000" stroke-width="20" stroke-miterlimit="10"/><path d="M386.500426,286.499997c0,1.635437-.041781,3.270875-.119375,4.906312-.083562,1.635438-.202937,3.264906-.364093,4.894375s-.358125,3.252969-.596875,4.8705c-.244719,1.6235-.52525,3.235063-.841594,4.840656-.316344,1.599625-.680438,3.19925-1.074375,4.786938-.399906,1.587687-.835625,3.163437-1.307156,4.72725-.4775,1.569781-.990813,3.121656-1.539938,4.661593-.555094,1.539938-1.140031,3.067938-1.76675,4.578032-.626719,1.516062-1.28925,3.00825-1.993562,4.4885-.698344,1.48025-1.4325,2.942593-2.202469,4.387031-.775938,1.444437-1.581719,2.865-2.423312,4.267656s-1.713032,2.787406-2.62625,4.148281c-.90725,1.360875-1.850313,2.697875-2.823219,4.011-.972906,1.319094-1.981625,2.608344-3.020188,3.873719s-2.106968,2.500906-3.205218,3.712562-2.226344,2.399438-3.384282,3.557375-2.345718,2.286032-3.557375,3.384282-2.447187,2.166656-3.712562,3.205218-2.554625,2.047281-3.873719,3.020188c-1.313125.972906-2.650125,1.915968-4.011,2.823218-1.360875.913219-2.745625,1.784657-4.148281,2.62625s-2.823219,1.647375-4.267656,2.423313c-1.444438.769969-2.906781,1.504125-4.387031,2.202469-1.48025.704312-2.972438,1.366843-4.4885,1.993562-1.510094.626719-3.038094,1.211656-4.578031,1.76675-1.539938.549125-3.091813,1.062438-4.661594,1.539938-1.563813.471531-3.139563.90725-4.72725,1.307156-1.587688.393937-3.187313.758031-4.786938,1.074375-1.605593.316343-3.217156.596875-4.840656.841593-1.617531.23875-3.241031.435719-4.8705.596875s-3.258937.280532-4.894375.364094c-1.635437.077594-3.270875.119375-4.906312.119375s-3.270875-.041781-4.906312-.119375c-1.635438-.083562-3.264907-.202937-4.894375-.364094s-3.252969-.358125-4.8705-.596875c-1.6235-.244718-3.235063-.52525-4.840657-.841593-1.599625-.316344-3.19925-.680438-4.786937-1.074375-1.587688-.399906-3.163437-.835625-4.72725-1.307156-1.569781-.4775-3.121656-.990813-4.661594-1.539938-1.539937-.555094-3.067937-1.140031-4.578031-1.76675-1.516062-.626719-3.00825-1.28925-4.4885-1.993562-1.48025-.698344-2.942594-1.4325-4.387031-2.202469-1.444438-.775938-2.865-1.581719-4.267656-2.423313s-2.787406-1.713031-4.148281-2.62625c-1.360875-.90725-2.697875-1.850312-4.011-2.823218-1.319094-.972907-2.608344-1.981625-3.873719-3.020188s-2.500906-2.106969-3.712563-3.205218-2.399437-2.226344-3.557375-3.384282-2.286031-2.345718-3.384281-3.557375-2.166656-2.447187-3.205218-3.712562-2.047282-2.554625-3.020188-3.873719c-.972906-1.313125-1.915969-2.650125-2.823219-4.011-.913218-1.360875-1.784656-2.745625-2.62625-4.148281s-1.647375-2.823219-2.423312-4.267656c-.769969-1.444438-1.504125-2.906781-2.202469-4.387031-.704312-1.48025-1.366844-2.972438-1.993562-4.4885-.626719-1.510094-1.211657-3.038094-1.76675-4.578032-.549125-1.539937-1.062438-3.091812-1.539938-4.661593-.471531-1.563813-.90725-3.139563-1.307156-4.72725-.393937-1.587688-.758031-3.187313-1.074375-4.786938-.316344-1.605593-.596875-3.217156-.841594-4.840656-.23875-1.617531-.435718-3.241031-.596875-4.8705s-.280531-3.258937-.364093-4.894375c-.077594-1.635437-.119375-3.270875-.119375-4.906312s.041781-3.270875.119375-4.906313c.083562-1.635437.202937-3.264906.364093-4.894375s.358125-3.252968.596875-4.8705c.244719-1.623499.52525-3.235062.841594-4.840656.316344-1.599625.680438-3.19925,1.074375-4.786937.399906-1.587688.835625-3.163438,1.307156-4.72725.4775-1.569781.990813-3.121656,1.539938-4.661594.555093-1.539937,1.140031-3.067937,1.76675-4.578031.626718-1.516062,1.28925-3.00825,1.993562-4.4885.698344-1.48025,1.4325-2.942594,2.202469-4.387031.775937-1.444438,1.581719-2.865,2.423312-4.267656s1.713032-2.787407,2.62625-4.148282c.90725-1.360875,1.850313-2.697875,2.823219-4.011.972906-1.319093,1.981625-2.608343,3.020188-3.873718s2.106968-2.500906,3.205218-3.712563s2.226344-2.399437,3.384281-3.557375s2.345719-2.286031,3.557375-3.384281s2.447188-2.166656,3.712563-3.205219s2.554625-2.047281,3.873719-3.020187c1.313125-.972906,2.650125-1.915969,4.011-2.823219c1.360875-.913218,2.745625-1.784656,4.148281-2.62625s2.823218-1.647375,4.267656-2.423312c1.444437-.769969,2.906781-1.504125,4.387031-2.202469c1.48025-.704312,2.972438-1.366844,4.4885-1.993562c1.510094-.626719,3.038094-1.211657,4.578031-1.76675c1.539938-.549125,3.091813-1.062438,4.661594-1.539938c1.563813-.471531,3.139562-.90725,4.72725-1.307156c1.587687-.393938,3.187312-.758031,4.786937-1.074375c1.605594-.316344,3.217157-.596875,4.840657-.841594c1.617531-.23875,3.241031-.435719,4.8705-.596875s3.258937-.280531,4.894375-.364094c1.635437-.077593,3.270874-.119375,4.906312-.119375s3.270875.041782,4.906312.119375c1.635438.083563,3.264907.202938,4.894375.364094s3.252969.358125,4.8705.596875c1.6235.244719,3.235063.52525,4.840656.841594c1.599625.316344,3.19925.680437,4.786938,1.074375c1.587687.399906,3.163437.835625,4.72725,1.307156c1.569781.4775,3.121656.990813,4.661594,1.539938c1.539937.555093,3.067937,1.140031,4.578031,1.76675c1.516062.626718,3.00825,1.28925,4.4885,1.993562c1.48025.698344,2.942593,1.4325,4.387031,2.202469c1.444437.775937,2.865,1.581719,4.267656,2.423312s2.787406,1.713032,4.148281,2.62625c1.360875.90725,2.697875,1.850313,4.011,2.823219c1.319094.972906,2.608344,1.981625,3.873719,3.020187s2.500906,2.106969,3.712562,3.205219s2.399438,2.226344,3.557375,3.384281s2.286032,2.345719,3.384282,3.557375s2.166656,2.447188,3.205218,3.712563s2.047282,2.554625,3.020188,3.873718c.972906,1.313125,1.915969,2.650125,2.823219,4.011.913218,1.360875,1.784656,2.745625,2.62625,4.148282s1.647374,2.823218,2.423312,4.267656c.769969,1.444437,1.504125,2.906781,2.202469,4.387031.704312,1.48025,1.366843,2.972438,1.993562,4.4885.626719,1.510094,1.211656,3.038094,1.76675,4.578031.549125,1.539938,1.062438,3.091813,1.539938,4.661594.471531,1.563812.90725,3.139562,1.307156,4.72725.393937,1.587687.758031,3.187312,1.074375,4.786937.316344,1.605594.596875,3.217157.841594,4.840656.23875,1.617532.435718,3.241032.596875,4.8705s.280531,3.258938.364093,4.894375c.077594,1.635438.119375,3.270875.119375,4.906313Zm0,0" transform="matrix(.08 0 0 0.08-6.12492-6.917756)" fill="none" stroke="#000" stroke-width="20" stroke-miterlimit="10"/></svg>
