<svg id="eyOAURJQXWr1" xmlns="http://www.w3.org/2000/svg" xmlns:xlink="http://www.w3.org/1999/xlink" viewBox="0 0 32 32" shape-rendering="geometricPrecision" text-rendering="geometricPrecision" project-id="b9ee9d20dc4b4ebf8d8b4d95d0831078" export-id="0321cc776a40473aae5a6354dd0e8d19" cached="false"><path d="M187.5,135.144531c1.714844,0,3.425781.082031,5.132812.25s3.398438.421875,5.082032.753907c1.679687.335937,3.34375.753906,4.984375,1.25s3.253906,1.074218,4.835937,1.730468c1.585938.65625,3.132813,1.390625,4.644532,2.195313c1.511718.808593,2.980468,1.691406,4.40625,2.644531s2.804687,1.972656,4.128906,3.058594c1.324218,1.089844,2.59375,2.238281,3.804687,3.453125c1.214844,1.210937,2.363281,2.480469,3.453125,3.804687c1.085938,1.324219,2.105469,2.703125,3.058594,4.128906s1.835938,2.894532,2.644531,4.40625c.804688,1.511719,1.539063,3.058594,2.195313,4.644532.65625,1.582031,1.234375,3.195312,1.730468,4.835937s.914063,3.304688,1.25,4.984375c.332032,1.683594.585938,3.375.753907,5.082032s.25,3.417968.25,5.132812-.082031,3.425781-.25,5.132812-.421875,3.398438-.753907,5.082032c-.335937,1.679687-.753906,3.34375-1.25,4.984375s-1.074218,3.253906-1.730468,4.835937c-.65625,1.585938-1.390625,3.132813-2.195313,4.644532-.808593,1.511718-1.691406,2.980468-2.644531,4.40625s-1.972656,2.804687-3.058594,4.128906c-1.089844,1.324218-2.238281,2.59375-3.453125,3.804687-1.210937,1.214844-2.480469,2.363281-3.804687,3.453125-1.324219,1.085938-2.703125,2.105469-4.128906,3.058594s-2.894532,1.835938-4.40625,2.644531c-1.511719.804688-3.058594,1.539063-4.644532,2.195313-1.582031.65625-3.195312,1.234375-4.835937,1.730468s-3.304688.914063-4.984375,1.25c-1.683594.332032-3.375.585938-5.082032.753907s-3.417968.25-5.132812.25-3.425781-.082031-5.132812-.25-3.398438-.421875-5.082032-.753907c-1.679687-.335937-3.34375-.753906-4.984375-1.25s-3.253906-1.074218-4.835937-1.730468c-1.585938-.65625-3.132813-1.390625-4.644532-2.195313-1.511718-.808593-2.980468-1.691406-4.40625-2.644531s-2.804687-1.972656-4.128906-3.058594c-1.324218-1.089844-2.59375-2.238281-3.804687-3.453125-1.214844-1.210937-2.363281-2.480469-3.453125-3.804687-1.085938-1.324219-2.105469-2.703125-3.058594-4.128906s-1.835938-2.894532-2.644531-4.40625c-.804688-1.511719-1.539063-3.058594-2.195313-4.644532-.65625-1.582031-1.234375-3.195312-1.730468-4.835937s-.914063-3.304688-1.25-4.984375c-.332032-1.683594-.585938-3.375-.753907-5.082032s-.25-3.417968-.25-5.132812.085938-3.425781.257813-5.128906c.167968-1.707032.421875-3.398438.757812-5.082032.335938-1.679687.753906-3.339843,1.25-4.980468.5-1.640625,1.078125-3.25,1.734375-4.835938.65625-1.582031,1.390625-3.128906,2.199219-4.640625s1.6875-2.980469,2.640625-4.40625s1.972656-2.800781,3.0625-4.125c1.085937-1.324219,2.238281-2.59375,3.449219-3.804687s2.480468-2.363282,3.804687-3.449219c1.324219-1.089844,2.699219-2.109375,4.125-3.0625s2.894531-1.832031,4.40625-2.640625s3.058594-1.542969,4.640625-2.199219c1.585938-.65625,3.195313-1.234375,4.835938-1.734375c1.640625-.496094,3.300781-.914062,4.980468-1.25c1.683594-.335937,3.375-.589844,5.082032-.757812c1.703125-.171875,3.414062-.257813,5.128906-.257813m0-13.089843c-1.070312,0-2.140625.027343-3.210938.078124-1.070312.054688-2.136718.132813-3.203124.238282s-2.128907.234375-3.1875.390625c-1.0625.160156-2.117188.34375-3.167969.550781-1.046875.207031-2.09375.445312-3.132813.703125-1.039062.261719-2.070312.546875-3.09375.855469-1.027344.3125-2.042968.648437-3.050781,1.007812-1.007813.363282-2.007813.746094-2.996094,1.15625-.992187.410156-1.96875.84375-2.9375,1.304688-.96875.457031-1.925781.9375-2.871093,1.441406-.945313.507812-1.875,1.035156-2.792969,1.585938s-1.824219,1.121093-2.714844,1.71875c-.890625.59375-1.765625,1.210937-2.625,1.847656-.863281.636718-1.707031,1.296875-2.535156,1.976562s-1.636719,1.378906-2.429688,2.097656-1.570312,1.457032-2.328125,2.214844-1.496094,1.535156-2.214844,2.328125-1.417968,1.601563-2.097656,2.429688-1.339844,1.671875-1.976562,2.535156c-.636719.859375-1.253906,1.734375-1.847656,2.625-.597657.890625-1.167969,1.796875-1.71875,2.714844s-1.078126,1.847656-1.585938,2.792969c-.503906.945312-.984375,1.902343-1.441406,2.871093-.460938.96875-.894532,1.945313-1.304688,2.9375-.410156.988281-.792968,1.988281-1.15625,2.996094-.359375,1.007813-.695312,2.023437-1.007812,3.050781-.308594,1.023438-.59375,2.054688-.855469,3.09375-.257813,1.039063-.496094,2.085938-.703125,3.132813-.207031,1.050781-.390625,2.105469-.550781,3.167969-.15625,1.058593-.285157,2.121093-.390625,3.1875s-.183594,2.132812-.238282,3.203124c-.050781,1.070313-.078124,2.140626-.078124,3.210938s.027343,2.140625.078124,3.210938c.054688,1.070312.132813,2.136718.238282,3.203124s.234375,2.128907.390625,3.1875c.160156,1.0625.34375,2.117188.550781,3.167969.207031,1.046875.445312,2.09375.703125,3.132813.261719,1.039062.546875,2.070312.855469,3.09375.3125,1.027344.648437,2.042968,1.007812,3.050781.363282,1.007813.746094,2.007813,1.15625,2.996094.410156.992187.84375,1.96875,1.304688,2.9375.457031.96875.9375,1.925781,1.441406,2.871093.507812.945313,1.035156,1.875,1.585938,2.792969s1.121093,1.824219,1.71875,2.714844c.59375.890625,1.210937,1.765625,1.847656,2.625.636718.863281,1.296875,1.707031,1.976562,2.535156s1.378906,1.636719,2.097656,2.429688s1.457032,1.570312,2.214844,2.328125s1.535156,1.496094,2.328125,2.214844s1.601563,1.417968,2.429688,2.097656s1.671875,1.339844,2.535156,1.976562c.859375.636719,1.734375,1.253906,2.625,1.847656.890625.597657,1.796875,1.167969,2.714844,1.71875s1.847656,1.078126,2.792969,1.585938c.945312.503906,1.902343.984375,2.871093,1.441406.96875.460938,1.945313.894532,2.9375,1.304688.988281.410156,1.988281.792968,2.996094,1.15625c1.007813.359375,2.023437.695312,3.050781,1.007812c1.023438.308594,2.054688.59375,3.09375.855469c1.039063.257813,2.085938.496094,3.132813.703125c1.050781.207031,2.105469.390625,3.167969.550781c1.058593.15625,2.121093.285157,3.1875.390625s2.132812.183594,3.203124.238282c1.070313.050781,2.140626.078124,3.210938.078124s2.140625-.027343,3.210938-.078124c1.070312-.054688,2.136718-.132813,3.203124-.238282s2.128907-.234375,3.1875-.390625c1.0625-.160156,2.117188-.34375,3.167969-.550781c1.046875-.207031,2.09375-.445312,3.132813-.703125c1.039062-.261719,2.070312-.546875,3.09375-.855469c1.027344-.3125,2.042968-.648437,3.050781-1.007812c1.007813-.363282,2.007813-.746094,2.996094-1.15625.992187-.410156,1.96875-.84375,2.9375-1.304688.96875-.457031,1.925781-.9375,2.871093-1.441406.945313-.507812,1.875-1.035156,2.792969-1.585938s1.824219-1.121093,2.714844-1.71875c.890625-.59375,1.765625-1.210937,2.625-1.847656.863281-.636718,1.707031-1.296875,2.535156-1.976562s1.636719-1.378906,2.429688-2.097656s1.570312-1.457032,2.328125-2.214844s1.496094-1.535156,2.214844-2.328125s1.417968-1.601563,2.097656-2.429688s1.339844-1.671875,1.976562-2.535156c.636719-.859375,1.253906-1.734375,1.847656-2.625.597657-.890625,1.167969-1.796875,1.71875-2.714844s1.078126-1.847656,1.585938-2.792969c.503906-.945312.984375-1.902343,1.441406-2.871093.460938-.96875.894532-1.945313,1.304688-2.9375.410156-.988281.792968-1.988281,1.15625-2.996094.359375-1.007813.695312-2.023437,1.007812-3.050781.308594-1.023438.59375-2.054688.855469-3.09375.257813-1.039063.496094-2.085938.703125-3.132813.207031-1.050781.390625-2.105469.550781-3.167969.15625-1.058593.285157-2.121093.390625-3.1875s.183594-2.132812.238282-3.203124c.050781-1.070313.078124-2.140626.078124-3.210938s-.027343-2.140625-.078124-3.210938c-.054688-1.070312-.132813-2.136718-.238282-3.203124s-.234375-2.128907-.390625-3.1875c-.160156-1.0625-.34375-2.117188-.550781-3.167969-.207031-1.046875-.445312-2.09375-.703125-3.132813-.261719-1.039062-.546875-2.070312-.855469-3.09375-.3125-1.027344-.648437-2.042968-1.007812-3.050781-.363282-1.007813-.746094-2.007813-1.15625-2.996094-.410156-.992187-.84375-1.96875-1.304688-2.9375-.457031-.96875-.9375-1.925781-1.441406-2.871093-.507812-.945313-1.035156-1.875-1.585938-2.792969s-1.121093-1.824219-1.71875-2.714844c-.59375-.890625-1.210937-1.765625-1.847656-2.625-.636718-.863281-1.296875-1.707031-1.976562-2.535156s-1.378906-1.636719-2.097656-2.429688-1.457032-1.570312-2.214844-2.328125-1.535156-1.496094-2.328125-2.214844-1.601563-1.417968-2.429688-2.097656-1.671875-1.339844-2.535156-1.976562c-.859375-.636719-1.734375-1.253906-2.625-1.847656-.890625-.597657-1.796875-1.167969-2.714844-1.71875s-1.847656-1.078126-2.792969-1.585938c-.945312-.503906-1.902343-.984375-2.871093-1.441406-.96875-.460938-1.945313-.894532-2.9375-1.304688-.988281-.410156-1.988281-.792968-2.996094-1.15625-1.007813-.359375-2.023437-.695312-3.050781-1.007812-1.023438-.308594-2.054688-.59375-3.09375-.855469-1.039063-.257813-2.085938-.496094-3.132813-.703125-1.050781-.207031-2.105469-.390625-3.167969-.550781-1.058593-.15625-2.121093-.285157-3.1875-.390625s-2.132812-.183594-3.203124-.238282c-1.070313-.050781-2.140626-.078124-3.210938-.078124Zm0,0" transform="matrix(.11 0 0 0.11-4.624929-4.624938)"/><path d="M286.49999,436.500651v-300.001309" transform="matrix(.08 0 0 0.08-6.919993-6.919999)" fill="none" stroke="#000" stroke-width="20" stroke-miterlimit="10"/><path d="M436.500645,286.499997h-300.00131" transform="matrix(.08 0 0 0.08-6.919999-6.919999)" fill="none" stroke="#000" stroke-width="20" stroke-miterlimit="10"/></svg>
