<svg id="eE9WLOkxT8V1" xmlns="http://www.w3.org/2000/svg" xmlns:xlink="http://www.w3.org/1999/xlink" viewBox="0 0 32 32" shape-rendering="geometricPrecision" text-rendering="geometricPrecision" project-id="af7a039fd26247ed8a716cf887beb403" export-id="051aec60a3f848a78b55d93332141015" cached="false"><g transform="matrix(.15 0 0 0.15-5.908004-5.09778)"><g transform="translate(74.7643 211.355)"><g transform="translate(.000001 0)"><path d="M21.375,0v-141.40625h51.359375c9.476563,0,17.441406,1.5625,23.890625,4.6875c6.445312,3.125,11.28125,7.542969,14.5,13.25c3.226562,5.710938,4.84375,12.464844,4.84375,20.265625c0,8.773437-2.195312,16.011719-6.578125,21.71875-4.386719,5.699219-11.21875,9.96875-20.5,12.8125v2.03125C93.472656,-64.835938,97.210938,-62,100.109375,-58.125c2.90625,3.867188,5.582031,9.636719,8.03125,17.3125L121.203125,0h-17.125l-14.125-43.234375c-1.679687-5.09375-3.617187-9.085937-5.8125-11.984375-2.1875-2.90625-4.960937-5.003906-8.3125-6.296875-3.355469-1.289063-7.609375-1.9375-12.765625-1.9375h-25.046875v63.453125L21.375,0Zm50.96875-77.578125c8.84375,0,15.421875-2.046875,19.734375-6.140625c4.320313-4.09375,6.484375-10.332031,6.484375-18.71875c0-8.375-2.164062-14.609375-6.484375-18.703125-4.3125-4.101563-10.890625-6.15625-19.734375-6.15625h-34.328125v49.71875h34.328125Zm0,0" transform="translate(.000001 0)"/></g></g></g></svg>
